<?xml version="1.0" encoding="UTF-8" standalone="no"?>
<!-- Created with Inkscape (http://www.inkscape.org/) -->

<svg
   xmlns:dc="http://purl.org/dc/elements/1.1/"
   xmlns:cc="http://creativecommons.org/ns#"
   xmlns:rdf="http://www.w3.org/1999/02/22-rdf-syntax-ns#"
   xmlns:svg="http://www.w3.org/2000/svg"
   xmlns="http://www.w3.org/2000/svg"
   xmlns:sodipodi="http://sodipodi.sourceforge.net/DTD/sodipodi-0.dtd"
   xmlns:inkscape="http://www.inkscape.org/namespaces/inkscape"
   width="1200"
   height="1200"
   viewBox="0 0 317.49999 317.50001"
   version="1.1"
   id="svg8"
   inkscape:version="0.92.2 (5c3e80d, 2017-08-06)"
   sodipodi:docname="logo.svg">
  <defs
     id="defs2" />
  <sodipodi:namedview
     id="base"
     pagecolor="#ffffff"
     bordercolor="#666666"
     borderopacity="1.0"
     inkscape:pageopacity="0.0"
     inkscape:pageshadow="2"
     inkscape:zoom="0.49497475"
     inkscape:cx="606.07185"
     inkscape:cy="592.79339"
     inkscape:document-units="mm"
     inkscape:current-layer="g46"
     showgrid="false"
     inkscape:window-width="1698"
     inkscape:window-height="900"
     inkscape:window-x="46"
     inkscape:window-y="72"
     inkscape:window-maximized="0"
     units="px" />
  <metadata
     id="metadata5">
    <rdf:RDF>
      <cc:Work
         rdf:about="">
        <dc:format>image/svg+xml</dc:format>
        <dc:type
           rdf:resource="http://purl.org/dc/dcmitype/StillImage" />
        <dc:title></dc:title>
      </cc:Work>
    </rdf:RDF>
  </metadata>
  <g
     inkscape:label="Layer 1"
     inkscape:groupmode="layer"
     id="layer1"
     transform="translate(0,20.500025)">
    <g
       id="g46"
       transform="matrix(0.03527778,0,0,-0.03527778,-342.05345,287.84039)"
       style="fill:#000000;stroke:none">
      <path
         id="path34"
         d="m 14339.595,8138.3909 c 0,-208 4,-338 9,-334 16,9 257,-13 426,-39 237,-38 368,-76 700,-206 500,-196 744,-322 1585,-819 393,-233 717,-425 720,-427 2,-3 -36,-726 -85,-1607 l -90,-1602 -940,-702 c -517,-386 -1175,-878 -1462,-1092 l -523,-391.00005 v 803.00005 l 1,802 239,195 239,195 1,138 v 137 h -410 -410 l 2,-1623 3,-1622.000047 80,3 c 169,7 297,48.9999996 423,139 85,60.999997 483,370.999997 857,666.999997 308,244 1518,1193.00005 2122,1664.00005 l 361,282 6,62 c 16,162 130,2056 178,2936 34,645 49,988 43,997 -21,31 -1769,1017 -2181,1231 -897,464 -1174,553 -1726,554 h -168 z"
         inkscape:connector-curvature="0"
         style="fill:#d6ad43;fill-opacity:1" />
      <path
         id="path36"
         d="m 13684.595,8453.3909 c -162,-29 -406,-108 -715,-232 -183,-73 -3059.9991,-1520 -3059.9991,-1539 0,-8 32,-472 70,-1031 39.0001,-559 100.0001,-1442 135.0001,-1962 36,-520 66,-952 67,-961 2,-9 499.999,-403 1107.999,-876 1210,-941.00005 1228,-954.00005 1382,-1063.00005 58,-41 111,-85 117,-97 5,-12 24,-29 42,-38 17,-9 195,-146 396,-303 200,-158 390,-300.999997 421,-318.999997 72,-40.0000004 186,-72 291,-80 l 81,-6 v 1622.000047 1621 h -400 -400 v -134 -135 l 216,-198 215,-198 -3,-792 c -2,-436 -7,-795.00005 -10,-798.00005 -4,-4 -526,395.00005 -1160,886.00005 -634,491 -1268,982 -1408,1091 l -255,197 -124,1558 c -68,857 -126,1578 -128,1603 l -5,46 343,196 c 681,388 1195,662 1625,867 347,165 567,250 824,320 186,51 493,101 617,101 h 53 v 335 335 l -127,-1 c -71,0 -164,-7 -208,-15 z"
         inkscape:connector-curvature="0"
         style="fill:#446785;fill-opacity:1" />
      <path
         id="path38"
         d="m 14339.595,7106.3909 v -267 h 205 c 113,0 205,2 205,4 0,3 -6,11 -13,18 -7,7 -95,121 -196,253 -101,132 -188,244 -192,250 -5,5 -9,-107 -9,-258 z"
         inkscape:connector-curvature="0"
         style="fill:#d6ad43;fill-opacity:1" />
      <path
         id="path40"
         d="m 13809.595,7111.3909 c -107,-137 -196,-255 -198,-261 -2,-7 64,-11 198,-13 111,-2 203,-1 203,2 1,3 0,122 -3,264 l -5,259 z"
         inkscape:connector-curvature="0"
         style="fill:#446785;fill-opacity:1" />
      <path
         id="path42"
         d="m 13094.595,6660.3909 c -5,-5 -347,-190 -760,-411 -412,-221 -752,-404 -754,-406 -2,-2 167,-512 375,-1133 l 379,-1131 h 175 c 96,0 266,3 377,7 l 202,6 3,146 3,146 458,3 457,2 v 1215 1215 h -450 -450 l -2,176 c -2,116 -6,172 -13,165 z"
         inkscape:connector-curvature="0"
         style="fill:#446785;fill-opacity:1" />
      <path
         id="path44"
         d="m 15179.595,6490.3909 v -171 l -420,2 -420,3 v -1225 -1225 l 415,3 415,2 v -150 -150 l 431,2 432,3 313,1115 c 173,613 314,1122 314,1131 0,12 -223,140 -723,417 -398,221 -731,404 -740,408 -16,6 -17,-9 -17,-165 z"
         inkscape:connector-curvature="0"
         style="fill:#d6ad43;fill-opacity:1" />
    </g>
  </g>
</svg>
